       <svg width="186" height="186" viewBox="0 0 186 186" fill="none" xmlns="http://www.w3.org/2000/svg">
            <g filter="url(#filter0_d_301:889)">
              <circle cx="93" cy="93" r="40" fill="white" />
            </g>
            <path
              d="M78.72 111.927L79.7377 112.579L80.7582 113.235C80.8886 113.319 81.034 113.376 81.1862 113.403C81.3384 113.43 81.4943 113.426 81.645 113.392C81.7958 113.358 81.9384 113.294 82.0648 113.204C82.1911 113.114 82.2988 112.999 82.3815 112.867L87.2269 105.13L90.2688 107.09C90.4827 107.227 90.7417 107.273 90.9889 107.217C91.2362 107.161 91.4513 107.008 91.5872 106.791L92.06 106.036C92.1957 105.819 92.2408 105.557 92.1854 105.306C92.13 105.056 91.9787 104.838 91.7647 104.7L86.7101 101.446L81.6582 98.1986C81.4443 98.061 81.1852 98.0152 80.938 98.0711C80.6908 98.1271 80.4756 98.2802 80.3398 98.4969L79.8678 99.2522C79.8005 99.3594 79.7547 99.4791 79.7331 99.6044C79.7114 99.7296 79.7144 99.8579 79.7417 99.982C79.7691 100.106 79.8203 100.223 79.8924 100.327C79.9646 100.431 80.0563 100.52 80.1623 100.588L83.2041 102.547L78.357 110.282C78.2742 110.414 78.2179 110.561 78.1913 110.715C78.1648 110.87 78.1685 111.028 78.2022 111.18C78.2359 111.333 78.299 111.478 78.3878 111.606C78.4766 111.734 78.5895 111.843 78.72 111.927Z"
              fill="url(#paint0_linear_301:889)" />
            <path
              d="M106.193 85.8467C106.433 85.5772 106.618 85.2621 106.737 84.9196C106.856 84.5772 106.907 84.2142 106.887 83.8517C106.761 81.6189 106.416 76.5281 105.694 72.4401C105.671 72.3108 105.622 72.1876 105.55 72.0786C105.478 71.9695 105.384 71.8768 105.274 71.8065C105.165 71.7361 105.042 71.6896 104.914 71.6699C104.786 71.6502 104.655 71.6577 104.53 71.692C100.574 72.7697 95.8794 74.6204 93.8324 75.4558C93.5002 75.5915 93.1978 75.7926 92.9427 76.0474C92.6876 76.3022 92.4848 76.6058 92.3462 76.9405C89.7604 83.1748 86.3301 93.417 85.278 96.5983C85.1861 96.8761 85.1887 97.177 85.2854 97.4531C85.3821 97.7292 85.5674 97.9644 85.8115 98.1213L87.1518 98.9834L99.3519 79.5037C99.4845 79.2926 99.6943 79.1436 99.9353 79.0893C100.176 79.035 100.429 79.0799 100.637 79.2142C100.845 79.3485 100.992 79.5611 101.046 79.8053C101.099 80.0495 101.055 80.3053 100.923 80.5163L88.7224 99.9934L90.0628 100.856C90.3063 101.011 90.5942 101.08 90.8809 101.052C91.1675 101.023 91.4364 100.898 91.6448 100.696C94.0425 98.3769 101.728 90.8707 106.193 85.8467Z"
              fill="url(#paint1_linear_301:889)" />
            <defs>
              <filter id="filter0_d_301:889" x="0" y="0" width="186" height="186" filterUnits="userSpaceOnUse"
                color-interpolation-filters="sRGB">
                <feFlood flood-opacity="0" result="BackgroundImageFix" />
                <feColorMatrix in="SourceAlpha" type="matrix" values="0 0 0 0 0 0 0 0 0 0 0 0 0 0 0 0 0 0 127 0"
                  result="hardAlpha" />
                <feOffset />
                <feGaussianBlur stdDeviation="26.5" />
                <feComposite in2="hardAlpha" operator="out" />
                <feColorMatrix type="matrix" values="0 0 0 0 0.469854 0 0 0 0 0.117692 0 0 0 0 0.807031 0 0 0 1 0" />
                <feBlend mode="normal" in2="BackgroundImageFix" result="effect1_dropShadow_301:889" />
                <feBlend mode="normal" in="SourceGraphic" in2="effect1_dropShadow_301:889" result="shape" />
              </filter>
              <linearGradient id="paint0_linear_301:889" x1="78.1738" y1="97.8486" x2="81.858" y2="115.572"
                gradientUnits="userSpaceOnUse">
                <stop stop-color="#781ECE" />
                <stop offset="1" stop-color="#6810BC" />
              </linearGradient>
              <linearGradient id="paint1_linear_301:889" x1="85.2109" y1="71.2782" x2="93.745" y2="104.441"
                gradientUnits="userSpaceOnUse">
                <stop stop-color="#781ECE" />
                <stop offset="1" stop-color="#6810BC" />
              </linearGradient>
            </defs>
          </svg>